<?xml version="1.0" encoding="UTF-8"?>
<svg width="85px" height="44px" viewBox="0 0 85 44" version="1.1" xmlns="http://www.w3.org/2000/svg" xmlns:xlink="http://www.w3.org/1999/xlink">
    <!-- Generator: Sketch 43.1 (39012) - http://www.bohemiancoding.com/sketch -->
    <title>Group 7</title>
    <desc>Created with Sketch.</desc>
    <defs>
        <path d="M63,42 C63,30.1258779 53.3741221,20.5 41.5,20.5 C35.9635345,20.5 30.9158402,22.5926786 27.10476,26.0301929 C22.7421722,29.9651555 20,35.6623434 20,42 C39.686747,42 40.2048193,42 63,42 Z" id="path-1"></path>
    </defs>
    <g id="Page-1" stroke="none" stroke-width="1" fill="none" fill-rule="evenodd">
        <g id="Dashboard_whealth" transform="translate(-986.000000, -453.000000)">
            <g id="Group" transform="translate(886.000000, 166.000000)">
                <g id="Group-7" transform="translate(101.000000, 288.000000)">
                    <path d="M65.0616037,7.33252203 C58.3686478,2.70834596 50.2506079,0 41.5,0 C30.813334,0 21.0701101,4.03935632 13.7138392,10.6745583 C5.29303013,18.2699513 0,29.2668489 0,41.5 C6.84037541,41.5 13.7138392,41.5 20,41.5 C33.4187939,41.5 41.6502888,41.1615757 58.3251444,29.0807878 C68.258939,21.88384 75,17 75,17 C75,17 71.2041276,12.1613709 69,10.6745583 C68,10 66.3130666,8.1971602 65.0616037,7.33252203 Z" id="Oval" fill="#FFFFFF"></path>
                    <path d="M83,41.5 C83,18.5801829 64.4198171,0 41.5,0 C30.813334,0 21.0701101,4.03935632 13.7138392,10.6745583 C5.29303013,18.2699513 0,29.2668489 0,41.5 C38,41.5 39,41.5 83,41.5 Z" id="Oval" stroke="#205A66" stroke-width="0.5"></path>
                    <g id="Oval">
                        <use fill="#205A66" fill-rule="evenodd" xlink:href="#path-1"></use>
                        <path stroke="#205A66" stroke-width="0.5" d="M63.25,42 C63.25,29.9878067 53.5121933,20.25 41.5,20.25 C36.0460246,20.25 30.9053424,22.2654756 26.937316,25.8445521 C22.3930757,29.9433615 19.75,35.7591329 19.75,42 L19.75,42.25 L20,42.25 C31.6075311,42.25 31.6075311,42.25 39.1147628,42.25 C47.8393835,42.25 47.8393835,42.25 63,42.25 L63.25,42.25 L63.25,42 Z"></path>
                    </g>
                </g>
            </g>
        </g>
    </g>
</svg>