<?xml version="1.0" encoding="UTF-8"?>
<svg width="60px" height="54px" viewBox="0 0 60 54" version="1.1" xmlns="http://www.w3.org/2000/svg" xmlns:xlink="http://www.w3.org/1999/xlink">
    <!-- Generator: Sketch 43.1 (39012) - http://www.bohemiancoding.com/sketch -->
    <title>Shape</title>
    <desc>Created with Sketch.</desc>
    <defs></defs>
    <g id="Page-1" stroke="none" stroke-width="1" fill="none" fill-rule="evenodd">
        <g id="Dashboard_whealth" transform="translate(-333.000000, -981.000000)" fill-rule="nonzero" fill="#FFFFFF">
            <g id="noun_926247_cc" transform="translate(333.000000, 981.000000)">
                <path d="M13.164158,0 C11.6920414,0 10.5021449,1.20418653 10.5021449,2.68798964 L10.5021449,4.48087565 L2.66206961,4.48087565 C1.18989652,4.48087565 0,5.68506218 0,7.16886528 L0,51.071061 C0,52.5549211 1.18989652,53.7592217 2.66206961,53.7592217 L57.3128128,53.7592217 C58.7849294,53.7592217 59.974826,52.5549211 59.974826,51.071061 L59.974826,7.16886528 C59.974826,5.68506218 58.7849294,4.48087565 57.3128128,4.48087565 L49.7682762,4.48087565 L49.7682762,2.68798964 C49.7682762,1.20418653 48.5783232,3.23978035e-15 47.106263,3.23978035e-15 C45.6341464,3.23978035e-15 44.444137,1.20418653 44.444137,2.68798964 L44.444137,4.48087565 L15.8260583,4.48087565 L15.8260583,2.68798964 C15.8260583,1.20418653 14.6363311,0 13.164158,0 Z M5.32425212,9.85702591 L10.5021449,9.85702591 L10.5021449,11.6474611 C10.5021449,13.1312642 11.6920414,14.3355648 13.164158,14.3355648 C14.6363311,14.3355648 15.8260583,13.1312642 15.8260583,11.6474611 L15.8260583,9.85702591 L44.444137,9.85702591 L44.444137,11.6474611 C44.444137,13.1312642 45.6341464,14.3355648 47.106263,14.3355648 C48.5783232,14.3355648 49.7682762,13.1312642 49.7682762,11.6474611 L49.7682762,9.85702591 L54.6506845,9.85702591 L54.6506845,20.3461232 L5.32425212,20.3461232 L5.32425212,9.85702591 L5.32425212,9.85702591 Z M5.32425212,23.0342268 L54.6506845,23.0342268 L54.6506845,48.3829574 L5.32425212,48.3829574 L5.32425212,23.0342268 L5.32425212,23.0342268 Z M9.9510254,28.4938175 L9.9510254,33.7059367 L15.1128881,33.7059367 L15.1128881,28.4938175 L9.9510254,28.4938175 Z M18.8878081,28.4938175 L18.8878081,33.7059367 L24.0522672,33.7059367 L24.0522672,28.4938175 L18.8878081,28.4938175 Z M27.8271308,28.4938175 L27.8271308,33.7059367 L32.9941298,33.7059367 L32.9941298,28.4938175 L27.8271308,28.4938175 Z M36.7639112,28.4938175 L36.7639112,33.7059367 L41.9337889,33.7059367 L41.9337889,28.4938175 L36.7639112,28.4938175 Z M45.7058303,28.4938175 L45.7058303,33.7059367 L50.8702329,33.7059367 L50.8702329,28.4938175 L45.7058303,28.4938175 Z M9.9510254,36.8697761 L9.9510254,42.0820092 L15.1128881,42.0820092 L15.1128881,36.8697761 L9.9510254,36.8697761 L9.9510254,36.8697761 Z M18.8878081,36.8697761 L18.8878081,42.0820092 L24.0522672,42.0820092 L24.0522672,36.8697761 L18.8878081,36.8697761 Z M27.8271308,36.8697761 L27.8271308,42.0820092 L32.9941298,42.0820092 L32.9941298,36.8697761 L27.8271308,36.8697761 Z M36.7639112,36.8697761 L36.7639112,42.0820092 L41.9337889,42.0820092 L41.9337889,36.8697761 L36.7639112,36.8697761 Z M45.7058303,36.8697761 L45.7058303,42.0820092 L50.8702329,42.0820092 L50.8702329,36.8697761 L45.7058303,36.8697761 Z" id="Shape"></path>
            </g>
        </g>
    </g>
</svg>