<?xml version="1.0" encoding="UTF-8"?>
<svg width="99px" height="100px" viewBox="0 0 99 100" version="1.1" xmlns="http://www.w3.org/2000/svg" xmlns:xlink="http://www.w3.org/1999/xlink">
    <!-- Generator: Sketch 43.1 (39012) - http://www.bohemiancoding.com/sketch -->
    <title>noun_462556_cc (1)</title>
    <desc>Created with Sketch.</desc>
    <defs></defs>
    <g id="Page-1" stroke="none" stroke-width="1" fill="none" fill-rule="evenodd">
        <g id="[LG]-Large-Desktop-(1200px-or-more)-(LG-or-bigger)" transform="translate(-983.000000, -476.000000)" fill-rule="nonzero" fill="#FFFFFF">
            <g id="Group-2" transform="translate(272.000000, 476.000000)">
                <g id="noun_462556_cc-(1)" transform="translate(711.000000, 0.000000)">
                    <path d="M62.3735605,68.7142857 C69.3593993,70.2857143 74.8482726,76.5714286 74.8482726,84.2142857 C74.8482726,92.9285714 67.8624339,100 59.1657774,100 C51.8235183,100 45.1228158,94.7142857 43.6971344,87.5 C53.4630519,86.2142857 61.1617314,78.3571429 62.3735605,68.7142857 Z M40.7032035,50 C49.3998599,50 56.4569828,57.1428571 56.4569828,65.7142857 C56.4569828,74.3571429 49.3998599,81.5714286 40.7032035,81.5714286 C32.2203993,81.5714286 25.0207083,74.7142857 25.0207083,65.7857143 C25.0207083,57.2857143 31.6501267,50 40.7032035,50 Z M-7.10542736e-15,42.8571429 L-7.10542736e-15,1.42108547e-13 L14.2568138,1.42108547e-13 L14.2568138,42.8571429 L-7.10542736e-15,42.8571429 Z M21.3852208,42.8571429 L21.3852208,11.5714286 C27.9433551,9.5 35.3568983,7.14285714 43.4832822,7.14285714 C64.939787,7.14285714 80.5509982,20 94.5226757,30.0714286 C98.3007314,32.7857143 98.7997199,36.3571429 97.2314704,38.7142857 C95.8770731,40.7857143 92.8831421,41.9285714 89.1763705,40.7857143 L72.0681939,35.3571429 C72.0681939,29.6428571 65.0823552,25.3571429 61.1617314,25.3571429 L37.5667045,25.3571429 C37.9944089,27.5 40.9883398,31.0714286 48.9721555,31.0714286 L60.4488907,31.0714286 C64.7259348,31.0714286 66.7931728,34 66.7931728,36.9285714 C66.7931728,39.8571429 64.6546507,42.8571429 60.4488907,42.8571429 L21.3852208,42.8571429 Z" id="Shape" transform="translate(49.033345, 50.000000) scale(-1, 1) rotate(-180.000000) translate(-49.033345, -50.000000) "></path>
                </g>
            </g>
        </g>
    </g>
</svg>