<?xml version="1.0" encoding="UTF-8"?>
<svg width="96px" height="80px" viewBox="0 0 96 80" version="1.1" xmlns="http://www.w3.org/2000/svg" xmlns:xlink="http://www.w3.org/1999/xlink">
    <!-- Generator: Sketch 43.1 (39012) - http://www.bohemiancoding.com/sketch -->
    <title>noun_547524_cc</title>
    <desc>Created with Sketch.</desc>
    <defs></defs>
    <g id="Page-1" stroke="none" stroke-width="1" fill="none" fill-rule="evenodd">
        <g id="[LG]-Large-Desktop-(1200px-or-more)-(LG-or-bigger)" transform="translate(-323.000000, -491.000000)" fill-rule="nonzero" fill="#FFFFFF">
            <g id="Group-2" transform="translate(272.000000, 476.000000)">
                <g id="noun_547524_cc" transform="translate(51.000000, 15.000000)">
                    <path d="M95.6,40 L95.6,40 L95.6,40 L94.2,41.4 L90.2,45.3 L90.2,45.3 L84.6,51 L79.8,55.8 L74.5,50.5 L79.3,45.7 L81.2,43.9 L81.2,43.8 L61.6,43.8 L61.6,36.3 L81.1,36.3 L74.5,29.7 L79.8,24.4 L90.7,35.4 L95.6,40 Z M4.1,79.9 L17,79.9 L59.6,79.9 L72.5,79.9 C74.6,79.9 76.2,78.2 76.2,76.2 L76.2,71.7 C76.2,67.8 74.4,64.1 71.3,61.7 C62.3,54.7 53.2,50.1 51.2,49.1 C51,49 50.8,48.8 50.8,48.5 L50.8,42.1 C51.8,40.1 52.3,38 52.7,36.1 C53.6,36.7 55,36.4 56.6,30.8 C57.9,26.3 57.1,24.7 56,24.4 C59.6,7.1 51.4,6.5 51.4,6.5 C51.4,6.5 50.2,4.1 46.9,2.3 C44.7,1 41.7,-2.46025422e-13 37.6,0.3 C36.3,0.4 35.1,0.6 33.9,1 C32.4,1.5 31.1,2.2 29.8,3.1 C28.3,4.1 26.9,5.2 25.6,6.6 C23.6,8.6 21.8,11.3 21.1,14.5 C20.4,17.3 20.4,20.3 21.5,23.3 C20,23.2 18.3,24 19.9,29.8 C21.1,34.1 22.2,35.2 23.1,35.3 C23.5,37.7 24.2,40.4 25.7,42.9 L25.7,48.5 C25.7,48.8 25.6,49 25.3,49.1 C23.3,50.1 14.2,54.7 5.2,61.7 C2.1,64.1 0.3,67.8 0.3,71.7 L0.3,76.2 C0.4,78.2 2.1,79.9 4.1,79.9 Z" id="Shape"></path>
                </g>
            </g>
        </g>
    </g>
</svg>