<?xml version="1.0" encoding="UTF-8"?>
<svg width="77px" height="104px" viewBox="0 0 77 104" version="1.1" xmlns="http://www.w3.org/2000/svg" xmlns:xlink="http://www.w3.org/1999/xlink">
    <!-- Generator: Sketch 43.1 (39012) - http://www.bohemiancoding.com/sketch -->
    <title>Group 3</title>
    <desc>Created with Sketch.</desc>
    <defs></defs>
    <g id="Page-1" stroke="none" stroke-width="1" fill="none" fill-rule="evenodd">
        <g id="[LG]-Large-Desktop-(1200px-or-more)-(LG-or-bigger)" transform="translate(-667.000000, -477.000000)" fill="#FFFFFF">
            <g id="Group-2" transform="translate(272.000000, 476.000000)">
                <g id="Group-3" transform="translate(395.000000, 2.000000)">
                    <circle id="Oval" cx="68" cy="27" r="9"></circle>
                    <path d="M70.67232,52.7521111 C70.33536,51.7886667 64.75392,39.1974444 62.56944,37.4684444 C61.06032,36.2738889 55.57248,34.126 53.0928,33.1885556 L52.52256,21.7081111 L60.51456,6.22655556 C60.54624,6.16444444 60.57504,6.10088889 60.59808,6.03444444 C61.15824,4.47733333 61.03008,2.99677778 60.23664,1.86577778 C59.5296,0.854666667 58.38912,0.275444444 57.1104,0.275444444 C55.36944,0.275444444 53.7264,1.35444444 52.7832,3.05311111 C50.65488,6.24533333 43.67088,16.8605556 43.16544,19.4114444 C42.88608,20.814 42.48288,24.7544444 42.09264,28.5663333 C41.79168,31.5028889 41.48064,34.5391111 41.30928,35.5227778 C40.9896,37.0235556 35.2944,48.3913333 30.0672,58.3897778 L16.94304,73.7442222 C15.48,75.4631111 2.62656,90.5763333 1.89648,91.5325556 C0.73296,93.0593333 0.4824,94.7796667 1.20816,96.253 C1.91088,97.6786667 3.39696,98.5655556 5.08752,98.5655556 L5.08752,98.5655556 C6.31008,98.5655556 7.49952,98.1047778 8.5248,97.2337778 C9.36864,96.5158889 28.3248,79.3125556 29.10096,78.6076667 L40.13856,69.096 L55.93968,77.8623333 C55.86336,82.6781111 55.63584,97.2005556 55.66896,97.9545556 C55.76976,100.137111 57.55968,101.721667 59.92272,101.721667 C61.90272,101.721667 64.16208,100.476556 64.7712,97.5732222 C65.39904,92.873 67.44384,77.4506667 67.41792,76.3211111 C67.3992,75.5165556 67.0392,73.4264444 65.8368,71.6064444 C66.55392,71.4677778 67.17456,71.111 67.6296,70.5693333 C68.60736,69.4036667 71.03088,57.5462222 71.04816,57.435 C71.24112,56.2028889 71.34624,54.679 70.67232,52.7521111 Z M67.91904,56.9467778 C67.6512,58.6685556 65.64528,67.2312222 65.09664,68.6395556 C65.11104,68.5991111 65.12688,68.5543333 65.14128,68.4951111 C64.80864,68.4951111 64.38672,68.2798889 64.20096,68.0155556 C64.1088,67.8826667 64.09584,67.7772222 64.15488,67.6168889 C64.61712,66.3486667 64.36368,57.0536667 64.27008,56.3011111 C64.0944,54.8942222 61.39152,49.3836667 59.796,46.2246667 C59.53968,45.7176667 59.0328,45.3868889 58.46832,45.3551111 C57.89664,45.3233333 57.36384,45.6006667 57.05568,46.0758889 L49.2984,58.0474444 C49.08384,58.3796667 48.99888,58.7812222 49.06368,59.1726667 L49.39776,61.1934444 C49.45824,61.5675556 49.65264,61.9084444 49.94208,62.1525556 C51.08544,63.1145556 61.14528,71.5645556 62.172,72.2781111 C63.60912,73.2791111 64.23552,75.5988889 64.25424,76.3687778 C64.22976,77.403 62.63424,89.6663333 61.65504,97.0344444 C61.3584,98.4355556 60.25824,98.5453333 59.92704,98.5453333 C59.88384,98.5453333 58.87152,98.5366667 58.8384,97.8158889 C58.81536,97.1066667 58.99824,84.9545556 59.1264,76.9595556 C59.13504,76.3731111 58.82112,75.8285556 58.30848,75.544 L40.71168,65.7824444 C40.4712,65.6495556 40.20768,65.5831111 39.9456,65.5831111 C39.57552,65.5831111 39.20688,65.7131111 38.91312,65.9673333 L27.01008,76.2257778 C21.52368,81.2018889 7.14816,94.2423333 6.48,94.81 C6.0336,95.1898889 5.55264,95.3892222 5.0904,95.3892222 L5.0904,95.3892222 C4.62096,95.3892222 4.21344,95.1768889 4.05072,94.8475556 C3.81456,94.3694444 4.17744,93.7757778 4.41504,93.4652222 C4.92768,92.7921111 13.63104,82.538 19.35216,75.8112222 L32.59008,60.3238889 C32.66784,60.2343333 32.73552,60.1346667 32.79024,60.0277778 C35.4168,55.0068889 44.01792,38.442 44.42976,36.0817778 C44.62272,34.9782222 44.91072,32.1586667 45.2448,28.8927778 C45.60912,25.3293333 46.02384,21.2906667 46.27296,20.0354444 C46.55376,18.6791111 51.14304,11.2344444 55.4832,4.71566667 C55.92384,3.927 56.53296,3.45611111 57.11184,3.45611111 C57.24864,3.45611111 57.50064,3.48644444 57.64608,3.69444444 C57.81312,3.93422222 57.81456,4.36755556 57.6504,4.86877778 L49.51584,20.6291111 C49.38768,20.879 49.3272,21.1577778 49.34016,21.4394444 L49.9824,34.3932222 C50.01408,35.0287778 50.4216,35.5848889 51.01776,35.8058889 C54.39168,37.0524444 59.59728,39.1671111 60.59808,39.9572222 C61.91568,41.133 67.1184,52.1858889 67.68576,53.808 C68.10048,54.9953333 68.07888,55.9212222 67.91904,56.9467778 Z M61.14384,66.6288889 C61.07472,66.834 61.02432,67.0405556 60.99264,67.2471111 C58.53168,65.2104444 55.05264,62.3013333 52.42464,60.0956667 L52.2864,59.2636667 L58.19904,50.1405556 C59.66928,53.1551111 61.00128,56.0656667 61.12512,56.6954444 C61.26912,57.8481111 61.31664,65.4487778 61.14384,66.6288889 Z" id="Shape" stroke="#FFFFFF" fill-rule="nonzero"></path>
                    <path d="M46,19 L57,3 L59,6 L51,20 L51,36 C51,37.0651458 59,32 61,40 C61.2068403,40.8273611 68.5146796,53.3072039 68,55 C67.9519424,55.1580629 65.5194121,66.8617368 65,67.602554 C64.4805879,68.3433711 64.5231587,58.5020433 64,58 C63.0652122,57.1029417 59.7963952,46.8935642 59,48 C57.3449642,50.2993494 54.6045851,54.2152438 51,58 C50.1517976,58.8905988 61.7603736,70.2363026 64,75 C64.2319393,75.4933361 65.025725,82.436295 64,89 C63.1448121,94.4724233 60.5168145,99.7720519 60,100 C59.4085017,100.260888 58.806785,93.8089239 59,88 C59.193215,82.1910761 59.1373303,78.902535 59,79 C57.6630948,79.9488177 41.3451205,65.5415701 40.1681436,66.4276969 C39.1024825,67.2300159 39.1820768,66.9744173 38.5512534,67.602554 C28.6665316,77.4451753 17.5336159,87.6810533 10,94 C1.09467477,101.469491 4,95 4,95 L42.2202039,42.3087425 L46,19 Z" id="Rectangle-6"></path>
                </g>
            </g>
        </g>
    </g>
</svg>